<svg width="9853" height="2752" xmlns="http://www.w3.org/2000/svg"><g fill="none" fill-rule="evenodd"><path d="M2651 687h-76.34V420.884L2413.02 687h-.165s-.044-.03-.058 0h-76.38V419.546L2174.557 687H2098V311h76.283v247.708L2324.735 311h88.041v248.625L2563.782 311H2651v376zm12.509-687H2086.49L1798 499.5 2086.491 999h577.018L2952 499.5 2663.509 0z" fill="#FFE352"/><path d="M624.5 2310c420.96 0 624.5-411.75 624.5-823.5 0-407.124-203.54-823.5-624.5-823.5C201.228 663 0 1079.376 0 1486.5 0 1921.382 222.044 2310 624.5 2310zm0-81c-259.089 0-365.5-224.37-365.5-742.5 0-284.51 18.506-742.5 363.187-742.5C872.022 744 990 947.551 990 1486.5c0 455.678-78.652 742.5-365.5 742.5zm1207.201 79C2090.77 2308 2255 2055.816 2255 1681.01c0-328.534-166.544-495.115-333.087-495.115-104.09 0-182.736 60.155-266.008 203.599h-4.626V626h-39.323L1302 762.503l16.192 37.018c25.444-9.254 39.323-13.881 64.767-13.881 53.201 0 83.272 43.958 83.272 138.817v1251.667C1595.765 2268.669 1722.985 2308 1831.7 2308zm11.51-70c-64.843 0-132-37.013-192.211-127.23v-640.78c44-71.712 106.526-154.99 192.21-154.99 164.422 0 203.79 245.208 203.79 478.85 0 363.185-104.21 444.15-203.79 444.15zm842.633 70c154.954 0 282.156-127.237 282.156-305.37 0-78.655-11.564-127.236-90.198-215.145-78.633-85.596-182.707-175.819-265.967-252.161-50.88-48.582-78.633-106.417-78.633-154.998 0-67.089 55.506-124.924 122.576-124.924 94.823 0 178.082 97.163 215.086 284.549h41.63v-330.817h-41.63c-9.25 16.194-18.502 23.134-37.004 23.134-34.691 0-94.823-46.268-185.02-46.268-141.079 0-242.84 115.67-242.84 286.862 0 117.983 53.193 194.326 117.95 254.474 69.383 64.775 138.766 124.924 203.523 185.072 78.634 74.03 83.26 143.431 83.26 168.879 0 87.909-60.132 157.31-134.14 157.31-117.951 0-210.461-122.61-228.963-319.249h-39.317v356.264h41.63c0-11.567 16.189-23.134 30.065-23.134 32.379 0 108.7 55.522 205.836 55.522zm735 0c171.078 0 305.166-161.938 342.156-395.592l-36.99-16.194c-60.108 164.252-136.4 233.654-228.874 233.654-138.712 0-226.563-164.252-238.122-439.546H3763c-2.312-319.25-124.84-504.322-330.597-504.322-270.488 0-351.403 340.07-351.403 585.29 0 319.25 141.024 536.71 339.844 536.71zM3567 1618h-308c4.632-131.766 13.895-356 155.158-356 90.316 0 150.526 83.22 152.842 356zm800.17 657v-39.342c-136.45 0-175.766-41.656-175.766-166.624v-580.87c50.88-92.57 90.195-143.482 141.075-143.482 50.88 0 67.068 74.055 134.137 74.055 57.817 0 106.384-48.599 106.384-108.769 0-71.74-57.818-124.968-134.137-124.968-101.759 0-175.765 80.998-242.834 222.166h-4.625V1185h-39.316l-282.15 129.597 9.25 39.341c20.815-6.942 32.379-9.256 46.255-9.256 64.756 0 80.945 60.17 80.945 97.197v624.84c0 118.026-41.629 168.94-143.388 168.94V2275h504.17zm728.813 28 284.629-911.281c34.71-108.706 60.165-131.835 113.388-143.4V1209h-275.372v39.32c53.223 2.312 97.19 13.877 97.19 67.073 0 11.565-2.314 25.442-11.57 60.136l-168.926 550.469h-4.628l-155.041-497.273c-11.57-34.693-16.198-60.135-16.198-90.203 0-57.822 37.024-90.203 97.19-90.203V1209H4654v39.32c55.537 16.19 87.934 41.631 127.273 166.528L5056.645 2303h39.338zm1117.96 5c67.124 0 138.877-46.268 199.057-136.49v-39.329c-37.034 30.075-57.865 39.328-83.326 39.328-39.348 0-60.18-32.387-60.18-101.79v-638.498c0-120.297-78.696-245.221-289.325-245.221-196.742 0-354.135 113.357-354.135 254.474 0 71.716 41.663 120.297 101.842 120.297 53.236 0 94.9-39.328 94.9-85.596 0-34.7-20.832-69.402-20.832-106.416 0-71.716 60.18-134.178 141.19-134.178 106.473 0 141.192 90.223 141.192 182.76v168.878l-206 106.416C5623.719 1824.5 5589 1949.423 5589 2058.153c0 148.057 99.528 249.847 233.775 249.847 99.528 0 185.169-60.148 259.236-192.012l4.63-2.314c0 141.118 53.235 194.326 127.303 194.326zm-303.416-137c-74.016 0-129.527-81.044-129.527-187.56 0-143.564 92.52-226.924 303-333.44v400.591C6028.489 2124.69 5972.977 2171 5910.527 2171zm945.805 137c110.964 0 208.057-92.56 249.668-219.83h-43.923c-23.117 48.593-55.482 83.303-110.964 83.303-67.04 0-99.405-50.908-99.405-185.12V1280.58h196.498v-71.735h-196.498V871h-39.3c-53.17 171.237-131.768 282.31-277.408 365.614v43.966h131.77v772.879c0 118.014 46.234 254.541 189.562 254.541zm800.387 0c261.294 0 446.281-235.967 446.281-569.097 0-326.19-178.05-552.903-432.407-552.903-258.981 0-448.593 229.027-448.593 562.157 0 333.13 178.05 559.843 434.72 559.843zm18.502-77c-212.942 0-237.74-351.327-238.214-544.603l-.007-5.807c0-178.074 23.128-418.59 210.467-418.59 113.328 0 240.533 83.255 240.533 543.473 0 233.577-41.63 425.527-212.78 425.527zm1054.948 44v-39.342c-136.45 0-175.765-41.656-175.765-166.624v-580.87c50.88-92.57 90.195-143.482 141.075-143.482 50.88 0 67.068 74.055 134.137 74.055 57.817 0 106.384-48.599 106.384-108.769 0-71.74-57.818-124.968-134.137-124.968-101.759 0-175.765 80.998-242.834 222.166h-4.625V1185h-39.316l-282.15 129.597 9.25 39.341c20.815-6.942 32.379-9.256 46.255-9.256 64.756 0 80.945 60.17 80.945 97.197v624.84c0 118.026-41.629 168.94-143.388 168.94V2275h504.17zm444.814 477c143.472 0 259.174-136.487 326.281-397.895l229.091-895.264c37.025-143.427 46.281-180.44 122.645-210.514V1209h-245.29v39.327c53.224 2.313 78.678 16.193 78.678 57.833 0 30.074-11.57 64.774-18.512 92.534l-141.157 550.576h-4.628l-182.81-557.516c-4.628-16.193-13.884-39.327-13.884-67.087 0-55.52 37.024-74.027 106.446-76.34V1209H9013v39.327c94.876 25.447 118.017 92.534 157.355 212.827l270.744 814.297c-30.082 148.054-85.62 286.855-161.983 286.855-39.34 0-64.794-37.014-134.215-37.014-62.48 0-106.446 48.58-106.446 108.727 0 67.087 57.85 117.981 136.528 117.981zM1265.087 370V190.745H1331V160h-170v30.745h65.913V370h38.174zm133.464 0v-90.04h93.898V370H1531V160h-38.55v89.49h-93.9V160H1360v210h38.55zM1718 370v-29.922h-101.341v-60.666h92.78v-29.647h-92.78v-59.569h99.132V160H1578v210h140z" fill="#F4F4F4" fill-rule="nonzero"/></g></svg>